<svg width="1045" height="579" viewBox="0 0 1045 579" fill="none" xmlns="http://www.w3.org/2000/svg">
<rect x="13.5171" y="10.2287" width="469.39" height="556.927" rx="4.41275" stroke="url(#paint0_linear_1063_3199)" stroke-width="1.7651"/>
<path d="M492.524 577.541H6.23866C3.81279 577.541 1.82591 575.524 1.82591 573.076V20.4762C1.82591 17.3303 5.05569 15.1235 8.04499 16.2292C11.8469 17.6357 14.9504 18.5825 17.3792 19.0322C19.7531 19.4717 21.6925 19.4802 22.998 18.7552C23.6915 18.3701 24.181 17.792 24.4401 17.0475C24.6905 16.328 24.7087 15.5048 24.5746 14.624C24.3083 12.8758 23.3999 10.6478 21.9792 7.96846C20.2808 4.7652 22.4657 0.88255 25.9245 0.88255H467.577C469.321 0.88255 470.729 1.84677 471.543 3.26817C472.361 4.69867 472.545 6.54845 471.832 8.21315C470.438 11.4721 469.76 14.3367 469.895 16.7042C470.033 19.1124 471.02 21.028 472.922 22.2247C474.774 23.3895 477.366 23.7918 480.573 23.515C483.795 23.2369 487.742 22.2648 492.401 20.5603C494.155 19.9189 496.098 20.7703 496.732 22.4606L497.558 22.1505L496.732 22.4606C496.867 22.8215 496.937 23.2037 496.937 23.5892V573.128C496.937 575.565 494.961 577.541 492.524 577.541Z" stroke="url(#paint1_linear_1063_3199)" stroke-width="1.7651"/>
<rect x="-0.88255" y="0.88255" width="469.39" height="556.927" rx="4.41275" transform="matrix(-1 0 0 1 1031.54 9.34616)" stroke="url(#paint2_linear_1063_3199)" stroke-width="1.7651"/>
<path d="M553.42 577.541H1039.71C1042.13 577.541 1044.12 575.524 1044.12 573.076V20.4762C1044.12 17.3303 1040.89 15.1235 1037.9 16.2292C1034.1 17.6357 1030.99 18.5825 1028.56 19.0322C1026.19 19.4717 1024.25 19.4802 1022.95 18.7552C1022.25 18.3701 1021.76 17.792 1021.5 17.0475C1021.25 16.328 1021.23 15.5048 1021.37 14.624C1021.64 12.8758 1022.54 10.6478 1023.96 7.96846C1025.66 4.7652 1023.48 0.88255 1020.02 0.88255H578.367C576.623 0.88255 575.214 1.84677 574.401 3.26817C573.583 4.69867 573.399 6.54845 574.111 8.21315C575.506 11.4721 576.184 14.3367 576.048 16.7042C575.911 19.1124 574.924 21.028 573.022 22.2247C571.17 23.3895 568.578 23.7918 565.371 23.515C562.148 23.2369 558.201 22.2648 553.542 20.5603C551.789 19.9189 549.846 20.7703 549.212 22.4606L548.386 22.1505L549.212 22.4606C549.076 22.8215 549.007 23.2037 549.007 23.5892V573.128C549.007 575.565 550.983 577.541 553.42 577.541Z" stroke="url(#paint3_linear_1063_3199)" stroke-width="1.7651"/>
<line x1="28.3027" y1="9.70803" x2="1020.29" y2="9.70803" stroke="#614F35" stroke-width="1.7651"/>
<line x1="28.3027" y1="0.882586" x2="1020.29" y2="0.882586" stroke="#614F35" stroke-width="1.7651"/>
<defs>
<linearGradient id="paint0_linear_1063_3199" x1="56.544" y1="9.70805" x2="486.5" y2="48.5" gradientUnits="userSpaceOnUse">
<stop stop-color="#69563A"/>
<stop offset="1" stop-opacity="0"/>
</linearGradient>
<linearGradient id="paint1_linear_1063_3199" x1="15.5054" y1="13.6795" x2="495" y2="41.5" gradientUnits="userSpaceOnUse">
<stop stop-color="#69563A"/>
<stop offset="1" stop-opacity="0"/>
</linearGradient>
<linearGradient id="paint2_linear_1063_3199" x1="43.9095" y1="0.361891" x2="463.309" y2="14.6538" gradientUnits="userSpaceOnUse">
<stop stop-color="#69563A"/>
<stop offset="1" stop-opacity="0"/>
</linearGradient>
<linearGradient id="paint3_linear_1063_3199" x1="1030.44" y1="13.6795" x2="558.5" y2="60.5" gradientUnits="userSpaceOnUse">
<stop stop-color="#69563A"/>
<stop offset="1" stop-opacity="0"/>
</linearGradient>
</defs>
</svg>
