<svg width="2108" height="1145" viewBox="0 0 2108 1145" fill="none" xmlns="http://www.w3.org/2000/svg">
<ellipse cx="256.403" cy="215.711" rx="1.17294" ry="1.27942" fill="#1B3A3B"/>
<ellipse cx="1.17294" cy="1.27942" rx="1.17294" ry="1.27942" transform="matrix(-1 0 0 1 2035.28 161.208)" fill="#1B3A3B"/>
<ellipse cx="1.17294" cy="1.27942" rx="1.17294" ry="1.27942" transform="matrix(-1 0 0 1 1133.06 760.489)" fill="#1B3A3B"/>
<ellipse cx="1.17294" cy="1.27942" rx="1.17294" ry="1.27942" transform="matrix(-1 0 0 1 1981.79 704.195)" fill="#1B3A3B"/>
<ellipse cx="1.17294" cy="1.27942" rx="1.17294" ry="1.27942" transform="matrix(-1 0 0 1 1103.03 187.819)" fill="#1B3A3B"/>
<ellipse cx="1.17294" cy="1.27942" rx="1.17294" ry="1.27942" transform="matrix(-1 0 0 1 265.553 26.1002)" fill="#1B3A3B"/>
<ellipse cx="1276.86" cy="53.4799" rx="1.17294" ry="1.27942" fill="#1B3A3B"/>
<ellipse cx="1496.43" cy="392.783" rx="1.17294" ry="1.27942" fill="#1B3A3B"/>
<ellipse cx="594.209" cy="992.065" rx="1.17294" ry="1.27942" fill="#1B3A3B"/>
<ellipse cx="1442.95" cy="935.771" rx="1.17294" ry="1.27942" fill="#1B3A3B"/>
<ellipse cx="564.182" cy="419.395" rx="1.17294" ry="1.27942" fill="#1B3A3B"/>
<ellipse cx="1.17294" cy="1.27942" rx="1.17294" ry="1.27942" transform="matrix(-1 0 0 1 1711.55 159.672)" fill="#1B3A3B"/>
<ellipse cx="1.17294" cy="1.27942" rx="1.17294" ry="1.27942" transform="matrix(-1 0 0 1 809.326 758.954)" fill="#1B3A3B"/>
<ellipse cx="1.17294" cy="1.27942" rx="1.17294" ry="1.27942" transform="matrix(-1 0 0 1 1658.06 702.66)" fill="#1B3A3B"/>
<ellipse cx="1.17294" cy="1.27942" rx="1.17294" ry="1.27942" transform="matrix(-1 0 0 1 779.299 186.284)" fill="#1B3A3B"/>
<ellipse cx="1.17294" cy="1.27942" rx="1.17294" ry="1.27942" transform="matrix(-1 0 0 1 691.094 103.889)" fill="#1B3A3B"/>
<ellipse cx="1600.59" cy="51.9446" rx="1.17294" ry="1.27942" fill="#1B3A3B"/>
<ellipse cx="977.056" cy="234.646" rx="1.17294" ry="1.27942" fill="#1B3A3B"/>
<ellipse cx="74.8332" cy="833.928" rx="1.17294" ry="1.27942" fill="#1B3A3B"/>
<ellipse cx="923.57" cy="777.634" rx="1.17294" ry="1.27942" fill="#1B3A3B"/>
<ellipse cx="44.8057" cy="261.258" rx="1.17294" ry="1.27942" fill="#1B3A3B"/>
<ellipse cx="1.17294" cy="1.27942" rx="1.17294" ry="1.27942" transform="matrix(-1 0 0 1 1993.99 378.709)" fill="#1B3A3B"/>
<ellipse cx="1.17294" cy="1.27942" rx="1.17294" ry="1.27942" transform="matrix(-1 0 0 1 1091.77 977.992)" fill="#1B3A3B"/>
<ellipse cx="1.17294" cy="1.27942" rx="1.17294" ry="1.27942" transform="matrix(-1 0 0 1 1940.5 921.697)" fill="#1B3A3B"/>
<ellipse cx="1.17294" cy="1.27942" rx="1.17294" ry="1.27942" transform="matrix(-1 0 0 1 1061.74 405.322)" fill="#1B3A3B"/>
<ellipse cx="1.17294" cy="1.27942" rx="1.17294" ry="1.27942" transform="matrix(-1 0 0 1 973.537 322.927)" fill="#1B3A3B"/>
<ellipse cx="1.17294" cy="1.27942" rx="1.17294" ry="1.27942" transform="matrix(-1 0 0 1 71.3145 922.209)" fill="#1B3A3B"/>
<ellipse cx="1.17294" cy="1.27942" rx="1.17294" ry="1.27942" transform="matrix(-1 0 0 1 920.051 865.914)" fill="#1B3A3B"/>
<ellipse cx="1.17294" cy="1.27942" rx="1.17294" ry="1.27942" transform="matrix(-1 0 0 1 41.2871 349.539)" fill="#1B3A3B"/>
<ellipse cx="1318.15" cy="270.982" rx="1.17294" ry="1.27942" fill="#1B3A3B"/>
<ellipse cx="415.923" cy="870.264" rx="1.17294" ry="1.27942" fill="#1B3A3B"/>
<ellipse cx="1264.66" cy="813.969" rx="1.17294" ry="1.27942" fill="#1B3A3B"/>
<ellipse cx="385.896" cy="297.594" rx="1.17294" ry="1.27942" fill="#1B3A3B"/>
<ellipse cx="1.17294" cy="1.27942" rx="1.17294" ry="1.27942" transform="matrix(-1 0 0 1 1318.38 542.476)" fill="#1B3A3B"/>
<ellipse cx="1.17294" cy="1.27942" rx="1.17294" ry="1.27942" transform="matrix(-1 0 0 1 416.157 1141.76)" fill="#1B3A3B"/>
<ellipse cx="1.17294" cy="1.27942" rx="1.17294" ry="1.27942" transform="matrix(-1 0 0 1 1264.89 1085.46)" fill="#1B3A3B"/>
<ellipse cx="1.17294" cy="1.27942" rx="1.17294" ry="1.27942" transform="matrix(-1 0 0 1 386.131 569.088)" fill="#1B3A3B"/>
<ellipse cx="1045.56" cy="126.151" rx="1.17294" ry="1.27942" fill="#1B3A3B"/>
<ellipse cx="143.333" cy="725.433" rx="1.17294" ry="1.27942" fill="#1B3A3B"/>
<ellipse cx="992.069" cy="669.139" rx="1.17294" ry="1.27942" fill="#1B3A3B"/>
<ellipse cx="113.306" cy="152.763" rx="1.17294" ry="1.27942" fill="#1B3A3B"/>
<ellipse cx="1.17294" cy="1.27942" rx="1.17294" ry="1.27942" transform="matrix(-1 0 0 1 1925.49 270.214)" fill="#1B3A3B"/>
<ellipse cx="1.17294" cy="1.27942" rx="1.17294" ry="1.27942" transform="matrix(-1 0 0 1 1023.27 869.497)" fill="#1B3A3B"/>
<ellipse cx="1.17294" cy="1.27942" rx="1.17294" ry="1.27942" transform="matrix(-1 0 0 1 1872.01 813.202)" fill="#1B3A3B"/>
<ellipse cx="1.17294" cy="1.27942" rx="1.17294" ry="1.27942" transform="matrix(-1 0 0 1 993.242 296.826)" fill="#1B3A3B"/>
<ellipse cx="1.17294" cy="1.27942" rx="1.17294" ry="1.27942" transform="matrix(-1 0 0 1 155.766 135.107)" fill="#1B3A3B"/>
<ellipse cx="1386.64" cy="162.487" rx="1.17294" ry="1.27942" fill="#1B3A3B"/>
<ellipse cx="484.423" cy="761.769" rx="1.17294" ry="1.27942" fill="#1B3A3B"/>
<ellipse cx="1333.16" cy="705.474" rx="1.17294" ry="1.27942" fill="#1B3A3B"/>
<ellipse cx="454.396" cy="189.099" rx="1.17294" ry="1.27942" fill="#1B3A3B"/>
<ellipse cx="1086.84" cy="343.653" rx="1.17294" ry="1.27942" fill="#1B3A3B"/>
<ellipse cx="184.62" cy="942.935" rx="1.17294" ry="1.27942" fill="#1B3A3B"/>
<ellipse cx="1033.36" cy="886.641" rx="1.17294" ry="1.27942" fill="#1B3A3B"/>
<ellipse cx="154.593" cy="370.265" rx="1.17294" ry="1.27942" fill="#1B3A3B"/>
<ellipse cx="1.17294" cy="1.27942" rx="1.17294" ry="1.27942" transform="matrix(-1 0 0 1 1884.2 487.717)" fill="#1B3A3B"/>
<ellipse cx="1.17294" cy="1.27942" rx="1.17294" ry="1.27942" transform="matrix(-1 0 0 1 981.981 1087)" fill="#1B3A3B"/>
<ellipse cx="1.17294" cy="1.27942" rx="1.17294" ry="1.27942" transform="matrix(-1 0 0 1 1830.72 1030.7)" fill="#1B3A3B"/>
<ellipse cx="1.17294" cy="1.27942" rx="1.17294" ry="1.27942" transform="matrix(-1 0 0 1 951.955 514.328)" fill="#1B3A3B"/>
<ellipse cx="1427.93" cy="379.989" rx="1.17294" ry="1.27942" fill="#1B3A3B"/>
<ellipse cx="525.71" cy="979.271" rx="1.17294" ry="1.27942" fill="#1B3A3B"/>
<ellipse cx="1374.45" cy="922.976" rx="1.17294" ry="1.27942" fill="#1B3A3B"/>
<ellipse cx="495.683" cy="406.601" rx="1.17294" ry="1.27942" fill="#1B3A3B"/>
<ellipse cx="286.431" cy="163.51" rx="1.17294" ry="1.27942" fill="#1B3A3B"/>
<ellipse cx="1.17294" cy="1.27942" rx="1.17294" ry="1.27942" transform="matrix(-1 0 0 1 2005.25 109.007)" fill="#1B3A3B"/>
<ellipse cx="1.17294" cy="1.27942" rx="1.17294" ry="1.27942" transform="matrix(-1 0 0 1 1103.03 708.289)" fill="#1B3A3B"/>
<ellipse cx="1.17294" cy="1.27942" rx="1.17294" ry="1.27942" transform="matrix(-1 0 0 1 1951.76 651.994)" fill="#1B3A3B"/>
<ellipse cx="1.17294" cy="1.27942" rx="1.17294" ry="1.27942" transform="matrix(-1 0 0 1 1073 135.619)" fill="#1B3A3B"/>
<ellipse cx="1.17294" cy="1.27942" rx="1.17294" ry="1.27942" transform="matrix(-1 0 0 1 984.797 53.2241)" fill="#1B3A3B"/>
<ellipse cx="195.88" cy="242.835" rx="1.17294" ry="1.27942" fill="#1B3A3B"/>
<ellipse cx="1.17294" cy="1.27942" rx="1.17294" ry="1.27942" transform="matrix(-1 0 0 1 2095.8 188.331)" fill="#1B3A3B"/>
<ellipse cx="1.17294" cy="1.27942" rx="1.17294" ry="1.27942" transform="matrix(-1 0 0 1 1193.58 787.613)" fill="#1B3A3B"/>
<ellipse cx="1.17294" cy="1.27942" rx="1.17294" ry="1.27942" transform="matrix(-1 0 0 1 2042.32 731.319)" fill="#1B3A3B"/>
<ellipse cx="1.17294" cy="1.27942" rx="1.17294" ry="1.27942" transform="matrix(-1 0 0 1 1163.55 214.943)" fill="#1B3A3B"/>
<ellipse cx="1.17294" cy="1.27942" rx="1.17294" ry="1.27942" transform="matrix(-1 0 0 1 326.076 53.2241)" fill="#1B3A3B"/>
<ellipse cx="467.063" cy="1.27942" rx="1.17294" ry="1.27942" fill="#1B3A3B"/>
<ellipse cx="1435.91" cy="419.907" rx="1.17294" ry="1.27942" fill="#1B3A3B"/>
<ellipse cx="533.686" cy="1019.19" rx="1.17294" ry="1.27942" fill="#1B3A3B"/>
<ellipse cx="1382.42" cy="962.894" rx="1.17294" ry="1.27942" fill="#1B3A3B"/>
<ellipse cx="503.658" cy="446.519" rx="1.17294" ry="1.27942" fill="#1B3A3B"/>
<ellipse cx="1.17294" cy="1.27942" rx="1.17294" ry="1.27942" transform="matrix(-1 0 0 1 1772.07 186.796)" fill="#1B3A3B"/>
<ellipse cx="1.17294" cy="1.27942" rx="1.17294" ry="1.27942" transform="matrix(-1 0 0 1 869.85 786.078)" fill="#1B3A3B"/>
<ellipse cx="1.17294" cy="1.27942" rx="1.17294" ry="1.27942" transform="matrix(-1 0 0 1 1718.59 729.783)" fill="#1B3A3B"/>
<ellipse cx="1.17294" cy="1.27942" rx="1.17294" ry="1.27942" transform="matrix(-1 0 0 1 839.822 213.408)" fill="#1B3A3B"/>
<ellipse cx="1.17294" cy="1.27942" rx="1.17294" ry="1.27942" transform="matrix(-1 0 0 1 2.3457 51.689)" fill="#1B3A3B"/>
<ellipse cx="1540.06" cy="79.0684" rx="1.17294" ry="1.27942" fill="#1B3A3B"/>
<ellipse cx="1312.52" cy="451.125" rx="1.17294" ry="1.27942" fill="#1B3A3B"/>
<ellipse cx="410.293" cy="1050.41" rx="1.17294" ry="1.27942" fill="#1B3A3B"/>
<ellipse cx="1259.03" cy="994.112" rx="1.17294" ry="1.27942" fill="#1B3A3B"/>
<ellipse cx="380.266" cy="477.737" rx="1.17294" ry="1.27942" fill="#1B3A3B"/>
<ellipse cx="1.17294" cy="1.27942" rx="1.17294" ry="1.27942" transform="matrix(-1 0 0 1 1895.46 218.014)" fill="#1B3A3B"/>
<ellipse cx="1.17294" cy="1.27942" rx="1.17294" ry="1.27942" transform="matrix(-1 0 0 1 993.242 817.296)" fill="#1B3A3B"/>
<ellipse cx="1.17294" cy="1.27942" rx="1.17294" ry="1.27942" transform="matrix(-1 0 0 1 1841.98 761.001)" fill="#1B3A3B"/>
<ellipse cx="1.17294" cy="1.27942" rx="1.17294" ry="1.27942" transform="matrix(-1 0 0 1 963.215 244.626)" fill="#1B3A3B"/>
<ellipse cx="1.17294" cy="1.27942" rx="1.17294" ry="1.27942" transform="matrix(-1 0 0 1 125.738 82.9067)" fill="#1B3A3B"/>
<ellipse cx="1416.67" cy="110.286" rx="1.17294" ry="1.27942" fill="#1B3A3B"/>
<ellipse cx="514.449" cy="709.568" rx="1.17294" ry="1.27942" fill="#1B3A3B"/>
<ellipse cx="1363.19" cy="653.274" rx="1.17294" ry="1.27942" fill="#1B3A3B"/>
<ellipse cx="484.423" cy="136.898" rx="1.17294" ry="1.27942" fill="#1B3A3B"/>
<ellipse cx="1287.18" cy="521.237" rx="1.17294" ry="1.27942" fill="#1B3A3B"/>
<ellipse cx="384.957" cy="1120.52" rx="1.17294" ry="1.27942" fill="#1B3A3B"/>
<ellipse cx="1233.69" cy="1064.22" rx="1.17294" ry="1.27942" fill="#1B3A3B"/>
<ellipse cx="354.931" cy="547.849" rx="1.17294" ry="1.27942" fill="#1B3A3B"/>
<ellipse cx="1116.87" cy="291.453" rx="1.17294" ry="1.27942" fill="#1B3A3B"/>
<ellipse cx="214.648" cy="890.735" rx="1.17294" ry="1.27942" fill="#1B3A3B"/>
<ellipse cx="1063.38" cy="834.441" rx="1.17294" ry="1.27942" fill="#1B3A3B"/>
<ellipse cx="184.62" cy="318.065" rx="1.17294" ry="1.27942" fill="#1B3A3B"/>
<ellipse cx="1.17294" cy="1.27942" rx="1.17294" ry="1.27942" transform="matrix(-1 0 0 1 1854.18 435.516)" fill="#1B3A3B"/>
<ellipse cx="1.17294" cy="1.27942" rx="1.17294" ry="1.27942" transform="matrix(-1 0 0 1 951.955 1034.8)" fill="#1B3A3B"/>
<ellipse cx="1.17294" cy="1.27942" rx="1.17294" ry="1.27942" transform="matrix(-1 0 0 1 1800.69 978.503)" fill="#1B3A3B"/>
<ellipse cx="1.17294" cy="1.27942" rx="1.17294" ry="1.27942" transform="matrix(-1 0 0 1 921.928 462.128)" fill="#1B3A3B"/>
<ellipse cx="1457.96" cy="327.788" rx="1.17294" ry="1.27942" fill="#1B3A3B"/>
<ellipse cx="555.737" cy="927.07" rx="1.17294" ry="1.27942" fill="#1B3A3B"/>
<ellipse cx="1404.47" cy="870.776" rx="1.17294" ry="1.27942" fill="#1B3A3B"/>
<ellipse cx="525.71" cy="354.401" rx="1.17294" ry="1.27942" fill="#1B3A3B"/>
<ellipse cx="232.476" cy="244.882" rx="1.64211" ry="1.79119" fill="#1B3A3B"/>
<ellipse cx="1.64211" cy="1.79119" rx="1.64211" ry="1.79119" transform="matrix(-1 0 0 1 2059.68 189.866)" fill="#1B3A3B"/>
<ellipse cx="1.64211" cy="1.79119" rx="1.64211" ry="1.79119" transform="matrix(-1 0 0 1 1157.45 789.149)" fill="#1B3A3B"/>
<ellipse cx="1.64211" cy="1.79119" rx="1.64211" ry="1.79119" transform="matrix(-1 0 0 1 2006.19 732.854)" fill="#1B3A3B"/>
<ellipse cx="1.64211" cy="1.79119" rx="1.64211" ry="1.79119" transform="matrix(-1 0 0 1 1127.43 216.479)" fill="#1B3A3B"/>
<ellipse cx="1.64211" cy="1.79119" rx="1.64211" ry="1.79119" transform="matrix(-1 0 0 1 289.949 54.7593)" fill="#1B3A3B"/>
<ellipse cx="1252.93" cy="82.6507" rx="1.64211" ry="1.79119" fill="#1B3A3B"/>
<ellipse cx="350.708" cy="681.933" rx="1.64211" ry="1.79119" fill="#1B3A3B"/>
<ellipse cx="1199.44" cy="625.638" rx="1.64211" ry="1.79119" fill="#1B3A3B"/>
<ellipse cx="320.68" cy="109.263" rx="1.64211" ry="1.79119" fill="#1B3A3B"/>
<ellipse cx="1472.5" cy="421.954" rx="1.64211" ry="1.79119" fill="#1B3A3B"/>
<ellipse cx="570.282" cy="1021.24" rx="1.64211" ry="1.79119" fill="#1B3A3B"/>
<ellipse cx="1419.02" cy="964.942" rx="1.64211" ry="1.79119" fill="#1B3A3B"/>
<ellipse cx="540.254" cy="448.566" rx="1.64211" ry="1.79119" fill="#1B3A3B"/>
<ellipse cx="1.64211" cy="1.79119" rx="1.64211" ry="1.79119" transform="matrix(-1 0 0 1 1735.94 188.331)" fill="#1B3A3B"/>
<ellipse cx="1.64211" cy="1.79119" rx="1.64211" ry="1.79119" transform="matrix(-1 0 0 1 833.723 787.613)" fill="#1B3A3B"/>
<ellipse cx="1.64211" cy="1.79119" rx="1.64211" ry="1.79119" transform="matrix(-1 0 0 1 1682.46 731.319)" fill="#1B3A3B"/>
<ellipse cx="1.64211" cy="1.79119" rx="1.64211" ry="1.79119" transform="matrix(-1 0 0 1 803.695 214.943)" fill="#1B3A3B"/>
<ellipse cx="1.64211" cy="1.79119" rx="1.64211" ry="1.79119" transform="matrix(-1 0 0 1 715.491 132.548)" fill="#1B3A3B"/>
<ellipse cx="1576.66" cy="81.1157" rx="1.64211" ry="1.79119" fill="#1B3A3B"/>
<ellipse cx="674.438" cy="680.398" rx="1.64211" ry="1.79119" fill="#1B3A3B"/>
<ellipse cx="1523.17" cy="624.103" rx="1.64211" ry="1.79119" fill="#1B3A3B"/>
<ellipse cx="644.411" cy="107.727" rx="1.64211" ry="1.79119" fill="#1B3A3B"/>
<ellipse cx="184.151" cy="260.746" rx="1.64211" ry="1.79119" fill="#1B3A3B"/>
<ellipse cx="1.64211" cy="1.79119" rx="1.64211" ry="1.79119" transform="matrix(-1 0 0 1 2108 205.731)" fill="#1B3A3B"/>
<ellipse cx="1.64211" cy="1.79119" rx="1.64211" ry="1.79119" transform="matrix(-1 0 0 1 1205.78 805.014)" fill="#1B3A3B"/>
<ellipse cx="1.64211" cy="1.79119" rx="1.64211" ry="1.79119" transform="matrix(-1 0 0 1 2054.51 748.719)" fill="#1B3A3B"/>
<ellipse cx="1.64211" cy="1.79119" rx="1.64211" ry="1.79119" transform="matrix(-1 0 0 1 1175.75 232.343)" fill="#1B3A3B"/>
<ellipse cx="1.64211" cy="1.79119" rx="1.64211" ry="1.79119" transform="matrix(-1 0 0 1 338.274 70.6243)" fill="#1B3A3B"/>
<ellipse cx="455.334" cy="19.1913" rx="1.64211" ry="1.79119" fill="#1B3A3B"/>
<ellipse cx="1424.18" cy="437.819" rx="1.64211" ry="1.79119" fill="#1B3A3B"/>
<ellipse cx="521.956" cy="1037.1" rx="1.64211" ry="1.79119" fill="#1B3A3B"/>
<ellipse cx="1370.69" cy="980.806" rx="1.64211" ry="1.79119" fill="#1B3A3B"/>
<ellipse cx="491.929" cy="464.431" rx="1.64211" ry="1.79119" fill="#1B3A3B"/>
<ellipse cx="1.64211" cy="1.79119" rx="1.64211" ry="1.79119" transform="matrix(-1 0 0 1 1784.27 204.196)" fill="#1B3A3B"/>
<ellipse cx="1.64211" cy="1.79119" rx="1.64211" ry="1.79119" transform="matrix(-1 0 0 1 882.048 803.479)" fill="#1B3A3B"/>
<ellipse cx="1.64211" cy="1.79119" rx="1.64211" ry="1.79119" transform="matrix(-1 0 0 1 1730.78 747.184)" fill="#1B3A3B"/>
<ellipse cx="1.64211" cy="1.79119" rx="1.64211" ry="1.79119" transform="matrix(-1 0 0 1 852.021 230.808)" fill="#1B3A3B"/>
<ellipse cx="1.64211" cy="1.79119" rx="1.64211" ry="1.79119" transform="matrix(-1 0 0 1 14.5439 69.0889)" fill="#1B3A3B"/>
<ellipse cx="1528.34" cy="96.9803" rx="1.64211" ry="1.79119" fill="#1B3A3B"/>
<ellipse cx="626.113" cy="696.262" rx="1.64211" ry="1.79119" fill="#1B3A3B"/>
<ellipse cx="1474.85" cy="639.968" rx="1.64211" ry="1.79119" fill="#1B3A3B"/>
<ellipse cx="596.085" cy="123.592" rx="1.64211" ry="1.79119" fill="#1B3A3B"/>
</svg>
