<svg width="377" height="71" viewBox="0 0 377 71" fill="none" xmlns="http://www.w3.org/2000/svg">
<path d="M56.3842 0H320.616L377 34.7804L320.616 71H56.3842L0 34.7804L56.3842 0Z" fill="url(#paint0_linear_1063_3002)"/>
<path d="M119.262 37.9688C119.262 39.9219 118.474 41.6276 116.898 43.0859C116.013 43.8932 115.062 44.4661 114.047 44.8047C112.966 45.1432 111.521 45.3125 109.711 45.3125C107.12 45.3125 104.665 44.7005 102.348 43.4766C102.152 43.3854 102.055 43.1185 102.055 42.6758C102.055 42.5846 102.048 41.7904 102.035 40.293C102.022 38.7956 102.016 37.9883 102.016 37.8711C102.016 37.7148 102.152 37.6367 102.426 37.6367H103.227C103.461 37.6367 103.591 37.7148 103.617 37.8711C103.617 38.3529 103.656 38.8216 103.734 39.2773C103.943 40.4492 104.548 41.4714 105.551 42.3438C106.566 43.2031 107.966 43.6328 109.75 43.6328C112.172 43.6328 113.839 42.8516 114.75 41.2891C115.141 40.5859 115.336 39.6615 115.336 38.5156C115.336 37.487 114.978 36.6602 114.262 36.0352C113.559 35.2279 112.172 34.4987 110.102 33.8477C107.797 33.1185 105.948 32.1615 104.555 30.9766C103.161 29.7786 102.465 27.9883 102.465 25.6055C102.465 23.4049 103.435 21.5234 105.375 19.9609C106.885 18.763 108.845 18.1641 111.254 18.1641C113.91 18.1641 115.993 18.75 117.504 19.9219C117.712 20.0911 117.829 20.2669 117.855 20.4492C117.999 21.3086 118.07 22.6497 118.07 24.4727C118.07 24.7461 118.012 24.8828 117.895 24.8828H116.938C116.794 24.8828 116.703 24.8047 116.664 24.6484C116.56 24.1927 116.423 23.6979 116.254 23.1641C116.007 22.3698 115.531 21.7253 114.828 21.2305C113.617 20.4102 112.068 20 110.18 20C108.734 20 107.615 20.3841 106.82 21.1523C105.935 22.0247 105.512 23.1576 105.551 24.5508C105.577 25.4883 106 26.3997 106.82 27.2852C107.237 27.7279 108.734 28.457 111.312 29.4727C112.849 30.0846 113.962 30.5729 114.652 30.9375C115.811 31.5495 116.788 32.2526 117.582 33.0469C118.702 34.1667 119.262 35.8073 119.262 37.9688ZM135.316 42.4805C135.382 42.5977 135.303 42.7474 135.082 42.9297C134.496 43.4115 133.708 43.8477 132.719 44.2383C131.208 44.8503 129.757 45.1562 128.363 45.1562C126.892 45.1562 125.753 44.7786 124.945 44.0234C124.138 43.2682 123.734 42.2591 123.734 40.9961C123.734 40.8138 123.76 39.401 123.812 36.7578C123.865 34.1016 123.891 32.7018 123.891 32.5586C123.891 30.8268 123.865 29.8112 123.812 29.5117C123.799 29.3424 123.65 29.1081 123.363 28.8086C122.921 28.6003 122.4 28.3594 121.801 28.0859C121.592 27.9818 121.488 27.832 121.488 27.6367C121.488 27.4284 121.592 27.2721 121.801 27.168C122.087 27.0117 122.908 26.4388 124.262 25.4492C125.629 24.4466 126.391 23.8607 126.547 23.6914C126.716 23.5221 126.938 23.4375 127.211 23.4375C127.549 23.4375 127.693 23.6133 127.641 23.9648C127.576 24.668 127.497 25.4948 127.406 26.4453C127.367 26.8359 127.432 27.0443 127.602 27.0703C129.477 27.2656 131.612 27.3633 134.008 27.3633C134.255 27.3633 134.359 27.4935 134.32 27.7539C134.242 28.0924 134.138 28.5221 134.008 29.043C133.956 29.2253 133.832 29.3164 133.637 29.3164C133.493 29.3164 132.465 29.2578 130.551 29.1406C128.637 29.0234 127.654 28.9648 127.602 28.9648C127.445 28.9648 127.367 29.069 127.367 29.2773V39.3555C127.367 40.9701 127.621 41.9792 128.129 42.3828C128.546 42.7083 129.411 42.8711 130.727 42.8711C131.964 42.8711 133.07 42.6758 134.047 42.2852C134.633 42.0378 134.926 41.9141 134.926 41.9141C135.004 41.9141 135.134 42.1029 135.316 42.4805ZM154.438 43.7109C154.411 43.776 154.346 43.8737 154.242 44.0039C153.578 44.668 152.979 45.1302 152.445 45.3906C152.328 45.4818 152.204 45.5273 152.074 45.5273C151.124 45.5273 150.141 45.1693 149.125 44.4531C148.122 43.724 147.426 42.8776 147.035 41.9141C146.944 41.6797 146.84 41.6536 146.723 41.8359C146.241 42.6302 145.642 43.3138 144.926 43.8867C143.78 44.7852 142.562 45.2344 141.273 45.2344C140.284 45.2344 139.405 45.0065 138.637 44.5508C137.764 44.0299 137.328 43.2227 137.328 42.1289C137.328 40.8268 137.738 39.681 138.559 38.6914C139.379 37.7018 140.499 36.9531 141.918 36.4453C143.415 35.8984 145.004 35.4297 146.684 35.0391C146.801 35.013 146.866 34.8698 146.879 34.6094C146.957 32.6693 146.957 31.3607 146.879 30.6836C146.801 30.0326 146.521 29.5117 146.039 29.1211C145.505 28.6914 144.802 28.4766 143.93 28.4766C143.057 28.4766 142.335 28.6523 141.762 29.0039C141.488 29.1602 141.352 29.4531 141.352 29.8828V30.6445C141.352 31.3216 141.208 31.8815 140.922 32.3242C140.505 33.0924 139.783 33.4766 138.754 33.4766C137.96 33.4766 137.562 33.1445 137.562 32.4805C137.562 31.8685 137.882 31.1198 138.52 30.2344C139.171 29.349 139.919 28.6719 140.766 28.2031C142.094 27.4479 143.708 27.0703 145.609 27.0703C147.276 27.0703 148.591 27.4609 149.555 28.2422C149.906 28.5156 150.193 29.0104 150.414 29.7266C150.609 30.3646 150.701 30.9375 150.688 31.4453L150.316 39.082C150.264 40.5273 150.655 41.569 151.488 42.207C152.217 42.7669 153.096 43.1901 154.125 43.4766C154.333 43.5417 154.438 43.6198 154.438 43.7109ZM146.801 36.5625C146.801 36.3151 146.697 36.1914 146.488 36.1914C145.616 36.1914 144.678 36.4453 143.676 36.9531C141.814 37.9036 140.883 39.1602 140.883 40.7227C140.883 41.6602 141.117 42.3372 141.586 42.7539C142.055 43.1576 142.595 43.3203 143.207 43.2422C144.236 43.112 145.193 42.4414 146.078 41.2305C146.312 40.918 146.462 40.5599 146.527 40.1562C146.71 38.8932 146.801 37.6953 146.801 36.5625ZM169.672 29.082C169.503 30.1367 169.262 30.9896 168.949 31.6406C168.884 31.7839 168.741 31.9466 168.52 32.1289C168.324 32.1549 168.161 32.0833 168.031 31.9141C167.549 31.237 167.204 30.8268 166.996 30.6836C166.384 30.2539 165.733 30.0391 165.043 30.0391C163.754 30.0391 162.751 30.319 162.035 30.8789C161.905 30.9831 161.84 31.1589 161.84 31.4062C161.84 31.4844 161.833 32.9818 161.82 35.8984C161.807 38.8151 161.801 40.3581 161.801 40.5273C161.801 42.7148 162.029 43.8216 162.484 43.8477L165.844 43.9648C166 43.9648 166.078 44.056 166.078 44.2383V44.9219C166.078 45.0521 166.026 45.1172 165.922 45.1172L155.59 45C155.408 45 155.316 44.9349 155.316 44.8047V44.1211C155.316 43.9388 155.395 43.8477 155.551 43.8477H157.641C157.901 43.8477 158.031 43.724 158.031 43.4766V30.918C158.031 29.1341 157.81 28.2422 157.367 28.2422H155.238C155.108 28.2422 155.043 28.1771 155.043 28.0469V27.2461C155.043 27.1029 155.108 27.0312 155.238 27.0312H158.031C159.099 27.0312 159.9 26.9792 160.434 26.875C160.993 26.6927 161.397 26.6016 161.645 26.6016C161.827 26.6016 161.918 26.7773 161.918 27.1289C161.918 27.2201 161.905 27.5456 161.879 28.1055C161.853 28.6523 161.84 28.9648 161.84 29.043C161.84 29.4076 161.931 29.5117 162.113 29.3555C163.051 28.6133 163.598 28.1771 163.754 28.0469C164.809 27.3438 165.798 26.9922 166.723 26.9922C167.96 26.9922 168.917 27.5 169.594 28.5156C169.711 28.6979 169.737 28.8867 169.672 29.082ZM184.535 42.4805C184.6 42.5977 184.522 42.7474 184.301 42.9297C183.715 43.4115 182.927 43.8477 181.938 44.2383C180.427 44.8503 178.975 45.1562 177.582 45.1562C176.111 45.1562 174.971 44.7786 174.164 44.0234C173.357 43.2682 172.953 42.2591 172.953 40.9961C172.953 40.8138 172.979 39.401 173.031 36.7578C173.083 34.1016 173.109 32.7018 173.109 32.5586C173.109 30.8268 173.083 29.8112 173.031 29.5117C173.018 29.3424 172.868 29.1081 172.582 28.8086C172.139 28.6003 171.618 28.3594 171.02 28.0859C170.811 27.9818 170.707 27.832 170.707 27.6367C170.707 27.4284 170.811 27.2721 171.02 27.168C171.306 27.0117 172.126 26.4388 173.48 25.4492C174.848 24.4466 175.609 23.8607 175.766 23.6914C175.935 23.5221 176.156 23.4375 176.43 23.4375C176.768 23.4375 176.911 23.6133 176.859 23.9648C176.794 24.668 176.716 25.4948 176.625 26.4453C176.586 26.8359 176.651 27.0443 176.82 27.0703C178.695 27.2656 180.831 27.3633 183.227 27.3633C183.474 27.3633 183.578 27.4935 183.539 27.7539C183.461 28.0924 183.357 28.5221 183.227 29.043C183.174 29.2253 183.051 29.3164 182.855 29.3164C182.712 29.3164 181.684 29.2578 179.77 29.1406C177.855 29.0234 176.872 28.9648 176.82 28.9648C176.664 28.9648 176.586 29.069 176.586 29.2773V39.3555C176.586 40.9701 176.84 41.9792 177.348 42.3828C177.764 42.7083 178.63 42.8711 179.945 42.8711C181.182 42.8711 182.289 42.6758 183.266 42.2852C183.852 42.0378 184.145 41.9141 184.145 41.9141C184.223 41.9141 184.353 42.1029 184.535 42.4805ZM193.012 20.2734C193.012 21.0677 192.634 21.7773 191.879 22.4023C191.228 22.9362 190.622 23.2031 190.062 23.2031C188.995 23.2031 188.461 22.6953 188.461 21.6797C188.461 21.1198 188.721 20.5339 189.242 19.9219C189.854 19.2057 190.622 18.8477 191.547 18.8477C192.523 18.8477 193.012 19.3229 193.012 20.2734ZM196.098 44.8438C196.098 44.9479 196.033 45 195.902 45H186.254C186.189 45 186.137 44.987 186.098 44.9609C186.072 44.9349 186.059 44.8698 186.059 44.7656V44.0039C186.059 43.8997 186.124 43.8477 186.254 43.8477H188.695C188.904 43.8477 189.014 43.724 189.027 43.4766C189.105 37.6432 189.145 33.5938 189.145 31.3281C189.145 29.3229 188.878 28.3203 188.344 28.3203H186.215C186.059 28.3203 185.98 28.2422 185.98 28.0859V27.168C185.98 27.0508 186.033 26.9922 186.137 26.9922H188.773C189.607 26.9922 190.277 26.9661 190.785 26.9141C192.048 26.7839 192.725 26.7188 192.816 26.7188C192.999 26.7188 193.09 26.8685 193.09 27.168C193.09 27.2331 193.077 27.8125 193.051 28.9062C193.025 29.987 193.012 30.5794 193.012 30.6836C192.882 31.6081 192.816 34.6875 192.816 39.9219C192.816 42.5391 193.057 43.8477 193.539 43.8477H195.902C196.033 43.8477 196.098 43.9128 196.098 44.043V44.8438ZM218.266 44.7656C218.266 44.9219 218.214 45 218.109 45H209.789C209.659 45 209.594 44.9479 209.594 44.8438V44.043C209.594 43.9128 209.659 43.8477 209.789 43.8477H211.273C211.417 43.8477 211.521 43.737 211.586 43.5156C211.742 41.9401 211.82 39.0365 211.82 34.8047C211.82 32.6693 211.521 31.263 210.922 30.5859C210.323 29.8958 209.438 29.5508 208.266 29.5508C207.12 29.5508 205.948 29.7526 204.75 30.1562C204.529 30.2344 204.418 30.4102 204.418 30.6836C204.34 31.2435 204.301 34.3099 204.301 39.8828C204.301 42.526 204.516 43.8477 204.945 43.8477H206.898C207.042 43.8477 207.113 43.9128 207.113 44.043V44.8438C207.113 44.9479 207.042 45 206.898 45H197.855C197.79 45 197.738 44.987 197.699 44.9609C197.673 44.9349 197.66 44.8698 197.66 44.7656V44.0039C197.66 43.8997 197.725 43.8477 197.855 43.8477H200.102C200.31 43.8477 200.421 43.724 200.434 43.4766C200.512 37.6432 200.551 33.5091 200.551 31.0742C200.551 29.1341 200.336 28.1641 199.906 28.1641H197.621C197.465 28.1641 197.387 28.0859 197.387 27.9297V27.168C197.387 27.0508 197.439 26.9922 197.543 26.9922H200.18C201.013 26.9922 201.684 26.9661 202.191 26.9141C203.454 26.7839 204.132 26.7188 204.223 26.7188C204.405 26.7188 204.496 26.8685 204.496 27.168C204.496 27.2331 204.49 27.474 204.477 27.8906C204.464 28.2943 204.457 28.5417 204.457 28.6328C204.457 29.0625 204.542 29.2253 204.711 29.1211C205.349 28.6914 206.15 28.2357 207.113 27.7539C208.233 27.194 209.268 26.9141 210.219 26.9141C211.924 26.9141 213.233 27.3698 214.145 28.2812C215.212 29.349 215.746 31.1458 215.746 33.6719C215.746 34.5443 215.72 36.0156 215.668 38.0859C215.616 40.1432 215.59 41.1523 215.59 41.1133C215.59 42.6107 215.577 43.1641 215.551 42.7734C215.59 43.4896 215.733 43.8477 215.98 43.8477H218.031C218.188 43.8477 218.266 43.8867 218.266 43.9648V44.7656ZM238.637 48.7109C238.637 50.2995 237.855 51.7122 236.293 52.9492C234.405 54.4336 231.469 55.1758 227.484 55.1758C224.737 55.1758 222.699 54.7005 221.371 53.75C220.225 52.9297 219.652 51.862 219.652 50.5469C219.652 49.349 220.225 48.2292 221.371 47.1875C221.879 46.7188 222.797 46.2435 224.125 45.7617C224.438 45.5794 224.424 45.4622 224.086 45.4102C222.302 44.9805 221.41 44.2773 221.41 43.3008C221.41 42.194 222.315 41.0091 224.125 39.7461C224.281 39.6419 224.151 39.4727 223.734 39.2383C222.888 38.7695 222.257 38.3464 221.84 37.9688C220.694 36.901 220.121 35.4688 220.121 33.6719C220.121 31.7578 220.798 30.1497 222.152 28.8477C223.52 27.5326 225.499 26.875 228.09 26.875C229.509 26.875 230.831 26.9727 232.055 27.168C232.914 27.2982 234.014 27.3633 235.355 27.3633C236.189 27.3633 236.924 27.2526 237.562 27.0312C238.122 26.849 238.389 26.7578 238.363 26.7578C238.493 26.7578 238.559 26.9076 238.559 27.207C238.559 27.9232 238.305 28.5352 237.797 29.043C237.641 29.1992 237.296 29.2773 236.762 29.2773C236.632 29.2773 235.967 29.2122 234.77 29.082C234.366 29.043 234.138 29.069 234.086 29.1602C234.034 29.2513 234.086 29.3555 234.242 29.4727C235.284 30.4753 235.805 31.7448 235.805 33.2812C235.805 35.1172 235.036 36.7122 233.5 38.0664C231.977 39.4076 230.036 40.0781 227.68 40.0781C226.846 40.0781 226.26 40.013 225.922 39.8828C225.74 39.8307 225.59 39.8633 225.473 39.9805C224.496 40.5404 223.988 41.1784 223.949 41.8945C223.91 42.5195 224.418 42.8906 225.473 43.0078C226.332 43.099 227.178 43.1445 228.012 43.1445C230.447 43.1445 232.315 43.2878 233.617 43.5742C234.984 43.8737 236.15 44.4076 237.113 45.1758C238.129 45.9961 238.637 47.1745 238.637 48.7109ZM231.996 34.3164C231.996 32.4414 231.534 30.9896 230.609 29.9609C229.568 28.8151 228.363 28.2422 226.996 28.2422C225.759 28.2422 224.919 28.5742 224.477 29.2383C223.917 30.0846 223.637 31.1263 223.637 32.3633C223.637 33.9779 223.917 35.3255 224.477 36.4062C225.349 38.0599 226.658 38.8867 228.402 38.8867C229.613 38.8867 230.466 38.5221 230.961 37.793C231.651 36.7904 231.996 35.6315 231.996 34.3164ZM235.688 49.7266C235.688 49.349 235.538 48.9193 235.238 48.4375C234.835 47.7865 234.288 47.3438 233.598 47.1094C232.27 46.6536 230.349 46.4258 227.836 46.4258C225.922 46.4258 224.496 46.8229 223.559 47.6172C222.673 48.3594 222.211 49.2904 222.172 50.4102C222.133 51.4128 222.615 52.2461 223.617 52.9102C224.62 53.5742 226.254 53.9062 228.52 53.9062C230.811 53.9062 232.576 53.4961 233.812 52.6758C235.062 51.8555 235.688 50.8724 235.688 49.7266ZM255.863 20.2734C255.863 21.0677 255.486 21.7773 254.73 22.4023C254.079 22.9362 253.474 23.2031 252.914 23.2031C251.846 23.2031 251.312 22.6953 251.312 21.6797C251.312 21.1198 251.573 20.5339 252.094 19.9219C252.706 19.2057 253.474 18.8477 254.398 18.8477C255.375 18.8477 255.863 19.3229 255.863 20.2734ZM258.949 44.8438C258.949 44.9479 258.884 45 258.754 45H249.105C249.04 45 248.988 44.987 248.949 44.9609C248.923 44.9349 248.91 44.8698 248.91 44.7656V44.0039C248.91 43.8997 248.975 43.8477 249.105 43.8477H251.547C251.755 43.8477 251.866 43.724 251.879 43.4766C251.957 37.6432 251.996 33.5938 251.996 31.3281C251.996 29.3229 251.729 28.3203 251.195 28.3203H249.066C248.91 28.3203 248.832 28.2422 248.832 28.0859V27.168C248.832 27.0508 248.884 26.9922 248.988 26.9922H251.625C252.458 26.9922 253.129 26.9661 253.637 26.9141C254.9 26.7839 255.577 26.7188 255.668 26.7188C255.85 26.7188 255.941 26.8685 255.941 27.168C255.941 27.2331 255.928 27.8125 255.902 28.9062C255.876 29.987 255.863 30.5794 255.863 30.6836C255.733 31.6081 255.668 34.6875 255.668 39.9219C255.668 42.5391 255.909 43.8477 256.391 43.8477H258.754C258.884 43.8477 258.949 43.9128 258.949 44.043V44.8438ZM281.117 44.7656C281.117 44.9219 281.065 45 280.961 45H272.641C272.51 45 272.445 44.9479 272.445 44.8438V44.043C272.445 43.9128 272.51 43.8477 272.641 43.8477H274.125C274.268 43.8477 274.372 43.737 274.438 43.5156C274.594 41.9401 274.672 39.0365 274.672 34.8047C274.672 32.6693 274.372 31.263 273.773 30.5859C273.174 29.8958 272.289 29.5508 271.117 29.5508C269.971 29.5508 268.799 29.7526 267.602 30.1562C267.38 30.2344 267.27 30.4102 267.27 30.6836C267.191 31.2435 267.152 34.3099 267.152 39.8828C267.152 42.526 267.367 43.8477 267.797 43.8477H269.75C269.893 43.8477 269.965 43.9128 269.965 44.043V44.8438C269.965 44.9479 269.893 45 269.75 45H260.707C260.642 45 260.59 44.987 260.551 44.9609C260.525 44.9349 260.512 44.8698 260.512 44.7656V44.0039C260.512 43.8997 260.577 43.8477 260.707 43.8477H262.953C263.161 43.8477 263.272 43.724 263.285 43.4766C263.363 37.6432 263.402 33.5091 263.402 31.0742C263.402 29.1341 263.188 28.1641 262.758 28.1641H260.473C260.316 28.1641 260.238 28.0859 260.238 27.9297V27.168C260.238 27.0508 260.29 26.9922 260.395 26.9922H263.031C263.865 26.9922 264.535 26.9661 265.043 26.9141C266.306 26.7839 266.983 26.7188 267.074 26.7188C267.257 26.7188 267.348 26.8685 267.348 27.168C267.348 27.2331 267.341 27.474 267.328 27.8906C267.315 28.2943 267.309 28.5417 267.309 28.6328C267.309 29.0625 267.393 29.2253 267.562 29.1211C268.201 28.6914 269.001 28.2357 269.965 27.7539C271.085 27.194 272.12 26.9141 273.07 26.9141C274.776 26.9141 276.085 27.3698 276.996 28.2812C278.064 29.349 278.598 31.1458 278.598 33.6719C278.598 34.5443 278.572 36.0156 278.52 38.0859C278.467 40.1432 278.441 41.1523 278.441 41.1133C278.441 42.6107 278.428 43.1641 278.402 42.7734C278.441 43.4896 278.585 43.8477 278.832 43.8477H280.883C281.039 43.8477 281.117 43.8867 281.117 43.9648V44.7656Z" fill="#1C1C1F"/>
<defs>
<linearGradient id="paint0_linear_1063_3002" x1="0" y1="35.5" x2="377" y2="35.5" gradientUnits="userSpaceOnUse">
<stop stop-color="#F7F8F8"/>
<stop offset="1" stop-color="#78B7BB"/>
</linearGradient>
</defs>
</svg>
